<?xml version="1.0" encoding="UTF-8"?>
<svg width="384" height="384" version="1.1" viewBox="0 0 384 384" xmlns="http://www.w3.org/2000/svg">
 <path d="m0 166.2c0-136.86 29.334-166.2 166.2-166.2h51.608c136.86 0 166.2 29.334 166.2 166.2v51.608c0 136.86-29.334 166.2-166.2 166.2h-51.608c-136.86 0-166.2-29.334-166.2-166.2z" fill="#7f22fe"/>
 <path class="logo-icon" d="m237.52 94c-79.187 2.1083-135.9 133.4-134.49 174.54 0.13375-0.0208 0.26708-0.0375 0.40083-0.0571 14.631-1.3358 22.232-12.985 44.396-13.545 18.266-0.46042 29.081 7.692 47.562 13.805 13.94 4.6104 34.55 7.3404 51.066 3.2825 14.02-3.4446 23.401-10.863 25.141-14.478-19.424-43.458-15.227-97.983-22.569-114.55-3.9666-0.56833-14.14-1.4183-23.837 4.2079 3.7225-15.19 18.876-18.592 22.37-18.615-2.845-18.937-5.0412-25.164-10.041-34.59z" fill="#fff"/>
</svg>
