<?xml version="1.0" encoding="UTF-8" standalone="no"?>
<svg
   width="384"
   height="384"
   version="1.1"
   viewBox="0 0 384 384"
   id="svg2"
   sodipodi:docname="icon.svg"
   inkscape:version="1.4.2 (ebf0e940d0, 2025-05-08)"
   xmlns:inkscape="http://www.inkscape.org/namespaces/inkscape"
   xmlns:sodipodi="http://sodipodi.sourceforge.net/DTD/sodipodi-0.dtd"
   xmlns="http://www.w3.org/2000/svg"
   xmlns:svg="http://www.w3.org/2000/svg">
  <defs
     id="defs2" />
  <sodipodi:namedview
     id="namedview2"
     pagecolor="#ffffff"
     bordercolor="#000000"
     borderopacity="0.25"
     inkscape:showpageshadow="2"
     inkscape:pageopacity="0.0"
     inkscape:pagecheckerboard="0"
     inkscape:deskcolor="#d1d1d1"
     inkscape:zoom="2.3359375"
     inkscape:cx="191.78595"
     inkscape:cy="191.78595"
     inkscape:window-width="2048"
     inkscape:window-height="1116"
     inkscape:window-x="0"
     inkscape:window-y="0"
     inkscape:window-maximized="1"
     inkscape:current-layer="svg2" />
  <path
     d="m0 166.2c0-136.86 29.334-166.2 166.2-166.2h51.608c136.86 0 166.2 29.334 166.2 166.2v51.608c0 136.86-29.334 166.2-166.2 166.2h-51.608c-136.86 0-166.2-29.334-166.2-166.2z"
     fill="#7f22fe"
     id="path1"
     style="fill:#7008e7;fill-opacity:1" />
  <path
     class="logo-icon"
     d="m237.52 94c-79.187 2.1083-135.9 133.4-134.49 174.54 0.13375-0.0208 0.26708-0.0375 0.40083-0.0571 14.631-1.3358 22.232-12.985 44.396-13.545 18.266-0.46042 29.081 7.692 47.562 13.805 13.94 4.6104 34.55 7.3404 51.066 3.2825 14.02-3.4446 23.401-10.863 25.141-14.478-19.424-43.458-15.227-97.983-22.569-114.55-3.9666-0.56833-14.14-1.4183-23.837 4.2079 3.7225-15.19 18.876-18.592 22.37-18.615-2.845-18.937-5.0412-25.164-10.041-34.59z"
     fill="#fff"
     id="path2" />
</svg>
