<?xml version="1.0" encoding="UTF-8"?>
<svg width="143" height="48" version="1.1" viewBox="0 0 143 48" xmlns="http://www.w3.org/2000/svg">
<path class="logo-icon" d="m36.053 2.4c-19.005 0.50599-32.615 32.017-32.278 41.889 0.03207-0.0046 0.06412-0.0092 0.09622-0.0137 3.5115-0.3206 5.3357-3.1164 10.655-3.2507 4.3838-0.1105 6.9794 1.8461 11.415 3.3131 3.3456 1.1065 8.2921 1.7617 12.256 0.7878 3.3647-0.8267 5.6162-2.6071 6.0338-3.4748-4.6618-10.43-3.6544-23.516-5.4167-27.491-0.952-0.1364-3.3936-0.3404-5.721 1.0099 0.8934-3.6455 4.5302-4.4621 5.3689-4.4676-0.6828-4.5448-1.2099-6.0393-2.4099-8.3017z"/>
<path class="logo-caption" d="m61.758 24v-16h9.9219v2.0781h-7.5078v4.875h6.7969v2.0703h-6.7969v6.9766h-2.4141zm12.703 0v-12h2.336v12h-2.336zm1.1797-13.852c-0.4062 0-0.7552-0.1354-1.0468-0.40621-0.2865-0.27604-0.4297-0.60417-0.4297-0.98438 0-0.38541 0.1432-0.71354 0.4297-0.98437 0.2916-0.27604 0.6406-0.41407 1.0468-0.41407 0.4063 0 0.7526 0.13803 1.0391 0.41407 0.2917 0.27083 0.4375 0.59896 0.4375 0.98437 0 0.38021-0.1458 0.70834-0.4375 0.98438-0.2865 0.27081-0.6328 0.40621-1.0391 0.40621zm6.6348 6.7266v7.125h-2.3359v-12h2.2421v1.9531h0.1485c0.276-0.6354 0.7083-1.1458 1.2969-1.5312 0.5937-0.3854 1.3411-0.5781 2.2421-0.5781 0.8177 0 1.5339 0.1718 2.1485 0.5156 0.6146 0.3385 1.0911 0.8437 1.4297 1.5156 0.3385 0.6719 0.5078 1.5026 0.5078 2.4922v7.6328h-2.336v-7.3516c0-0.8698-0.2265-1.5494-0.6796-2.039-0.4532-0.4948-1.0756-0.7422-1.8672-0.7422-0.5417 0-1.0235 0.1172-1.4453 0.3515-0.4167 0.2344-0.7474 0.5782-0.9922 1.0313-0.2396 0.4479-0.3594 0.9896-0.3594 1.625zm14.305 7.3906c-0.7604 0-1.4479-0.1406-2.0625-0.4219-0.6146-0.2864-1.1016-0.7005-1.461-1.2421-0.3541-0.5417-0.5312-1.2058-0.5312-1.9922 0-0.6771 0.1302-1.2344 0.3906-1.6719s0.612-0.7839 1.0547-1.0391 0.9375-0.4479 1.4844-0.5781 1.1041-0.2292 1.6719-0.2969c0.7187-0.0833 1.302-0.151 1.75-0.2031 0.4479-0.0573 0.7734-0.1484 0.9765-0.2734 0.2035-0.125 0.3045-0.3282 0.3045-0.6094v-0.0547c0-0.6823-0.1925-1.2109-0.5779-1.5859-0.3802-0.375-0.9479-0.5625-1.7031-0.5625-0.7865 0-1.4063 0.1745-1.8594 0.5234-0.4479 0.3438-0.7578 0.7266-0.9297 1.1484l-2.1953-0.5c0.2604-0.7291 0.6406-1.3177 1.1406-1.7656 0.5052-0.4531 1.0859-0.7812 1.7422-0.9844 0.6562-0.2083 1.3463-0.3124 2.0703-0.3124 0.4792 0 0.987 0.0572 1.5234 0.1718 0.5417 0.1094 1.0469 0.3125 1.5159 0.6094 0.474 0.2969 0.862 0.7214 1.164 1.2734 0.302 0.5469 0.453 1.2579 0.453 2.1329v7.9687h-2.281v-1.6406h-0.094c-0.1511 0.3021-0.3777 0.5989-0.6797 0.8906-0.3021 0.2917-0.6901 0.5339-1.1641 0.7266s-1.0417 0.289-1.7031 0.289zm0.5078-1.875c0.6458 0 1.1979-0.1276 1.6562-0.3828 0.4636-0.2552 0.8151-0.5885 1.0547-1 0.2452-0.4167 0.3672-0.862 0.3672-1.3359v-1.5469c-0.083 0.0833-0.2448 0.1615-0.4844 0.2344-0.2343 0.0677-0.5026 0.1276-0.8046 0.1797-0.3021 0.0468-0.5964 0.0911-0.8829 0.1328-0.2864 0.0364-0.526 0.0677-0.7187 0.0937-0.4531 0.0573-0.8672 0.1537-1.2422 0.2891-0.3698 0.1354-0.6667 0.3307-0.8906 0.5859-0.2188 0.25-0.3281 0.5834-0.3281 1 0 0.5781 0.2135 1.0156 0.6406 1.3125 0.4271 0.2917 0.9713 0.4375 1.6328 0.4375zm10.861-5.5156v7.125h-2.336v-12h2.242v1.9531h0.149c0.276-0.6354 0.708-1.1458 1.297-1.5312 0.594-0.3854 1.341-0.5781 2.242-0.5781 0.818 0 1.534 0.1718 2.148 0.5156 0.615 0.3385 1.092 0.8437 1.43 1.5156 0.339 0.6719 0.508 1.5026 0.508 2.4922v7.6328h-2.336v-7.3516c0-0.8698-0.227-1.5494-0.68-2.039-0.453-0.4948-1.075-0.7422-1.867-0.7422-0.542 0-1.023 0.1172-1.445 0.3515-0.417 0.2344-0.748 0.5782-0.992 1.0313-0.24 0.4479-0.36 0.9896-0.36 1.625zm15.867 7.3672c-1.161 0-2.161-0.263-3-0.7891-0.833-0.5312-1.474-1.263-1.921-2.1953-0.448-0.9323-0.672-2-0.672-3.2031 0-1.2188 0.229-2.2943 0.687-3.2266 0.458-0.9375 1.104-1.6692 1.938-2.1953 0.833-0.526 1.815-0.789 2.945-0.789 0.911 0 1.724 0.1692 2.437 0.5078 0.714 0.3333 1.29 0.802 1.727 1.4062 0.443 0.6042 0.706 1.3099 0.789 2.1172h-2.273c-0.125-0.5625-0.412-1.0469-0.86-1.4531-0.442-0.4063-1.036-0.6094-1.781-0.6094-0.651 0-1.221 0.1719-1.711 0.5156-0.484 0.3386-0.862 0.8229-1.133 1.4531-0.271 0.625-0.406 1.3646-0.406 2.2188 0 0.875 0.133 1.6302 0.398 2.2656 0.266 0.6354 0.641 1.1276 1.125 1.4766 0.49 0.3489 1.066 0.5234 1.727 0.5234 0.443 0 0.844-0.0807 1.203-0.2422 0.365-0.1666 0.669-0.4036 0.914-0.7109 0.25-0.3073 0.425-0.6771 0.524-1.1094h2.273c-0.083 0.7761-0.336 1.4688-0.758 2.0781-0.422 0.6094-0.987 1.0886-1.695 1.4375-0.703 0.349-1.529 0.5235-2.477 0.5235zm12.6 0c-1.182 0-2.201-0.2526-3.055-0.7578-0.849-0.5104-1.505-1.2266-1.968-2.1485-0.459-0.927-0.688-2.013-0.688-3.2578 0-1.2291 0.229-2.3125 0.688-3.25 0.463-0.9375 1.109-1.6692 1.937-2.1953 0.833-0.526 1.807-0.789 2.922-0.789 0.677 0 1.333 0.1119 1.969 0.3359 0.635 0.2239 1.205 0.5755 1.711 1.0547 0.505 0.4791 0.903 1.1015 1.195 1.8672 0.292 0.7604 0.437 1.6849 0.437 2.7734v0.8281h-9.539v-1.75h7.25c0-0.6146-0.125-1.1588-0.375-1.6328-0.25-0.4792-0.601-0.8568-1.054-1.1328-0.448-0.276-0.974-0.4141-1.578-0.4141-0.657 0-1.23 0.1615-1.719 0.4844-0.485 0.3177-0.86 0.7344-1.125 1.25-0.261 0.5104-0.391 1.0651-0.391 1.6641v1.3672c0 0.802 0.141 1.4843 0.422 2.0468 0.287 0.5625 0.685 0.9922 1.195 1.2891 0.511 0.2917 1.107 0.4375 1.789 0.4375 0.443 0 0.847-0.0625 1.211-0.1875 0.365-0.1302 0.68-0.3229 0.946-0.5781 0.265-0.2552 0.468-0.5703 0.609-0.9453l2.211 0.3984c-0.177 0.651-0.495 1.2214-0.953 1.7109-0.453 0.4844-1.024 0.862-1.711 1.1328-0.682 0.2657-1.461 0.3985-2.336 0.3985zm-74.978 2.6669h2.397l4.1676 10.176h0.1534l4.1677-10.176h2.397v13.091h-1.8793v-9.473h-0.1214l-3.8608 9.4538h-1.5597l-3.8608-9.4602h-0.1214v9.4794h-1.8793v-13.091zm18.858 13.308c-0.6221 0-1.1846-0.115-1.6875-0.3451-0.5028-0.2344-0.9012-0.5732-1.1953-1.0164-0.2897-0.4432-0.4346-0.9865-0.4346-1.6299 0-0.554 0.1065-1.01 0.3196-1.3679 0.213-0.358 0.5007-0.6414 0.8629-0.8502s0.767-0.3665 1.2145-0.473c0.4474-0.1065 0.9034-0.1875 1.3679-0.2429 0.5881-0.0682 1.0653-0.1236 1.4318-0.1662 0.3665-0.0469 0.6328-0.1214 0.799-0.2237s0.2493-0.2685 0.2493-0.4986v-0.0447c0-0.5583-0.1577-0.9908-0.473-1.2976-0.3111-0.3068-0.7756-0.4602-1.3935-0.4602-0.6434 0-1.1505 0.1427-1.5213 0.4282-0.3665 0.2813-0.62 0.5945-0.7606 0.9397l-1.7962-0.4091c0.2131-0.5966 0.5241-1.0782 0.9332-1.4446 0.4134-0.3708 0.8885-0.6392 1.4255-0.8054 0.5369-0.1705 1.1015-0.2557 1.6939-0.2557 0.392 0 0.8075 0.0469 1.2464 0.1406 0.4432 0.0895 0.8565 0.2557 1.2401 0.4986 0.3877 0.2429 0.7052 0.5902 0.9524 1.0419 0.2471 0.4474 0.3707 1.0291 0.3707 1.745v6.5199h-1.8665v-1.3423h-0.0767c-0.1235 0.2471-0.3089 0.49-0.5561 0.7287-0.2471 0.2386-0.5646 0.4368-0.9524 0.5944-0.3878 0.1577-0.8523 0.2365-1.3935 0.2365zm0.4155-1.5341c0.5284 0 0.9801-0.1044 1.3551-0.3132 0.3793-0.2088 0.6669-0.4815 0.863-0.8182 0.2002-0.3409 0.3004-0.7052 0.3004-1.093v-1.2656c-0.0682 0.0682-0.2003 0.1321-0.3963 0.1917-0.1918 0.0554-0.4112 0.1044-0.6584 0.1471-0.2472 0.0383-0.4879 0.0745-0.7223 0.1086-0.2344 0.0299-0.4304 0.0554-0.5881 0.0767-0.3707 0.0469-0.7095 0.1257-1.0163 0.2365-0.3026 0.1108-0.5455 0.2706-0.7287 0.4794-0.179 0.2046-0.2685 0.4773-0.2685 0.8182 0 0.473 0.1748 0.831 0.5242 1.0739 0.3494 0.2386 0.7947 0.3579 1.3359 0.3579zm8.8866-4.5127v5.8295h-1.9113v-9.8182h1.8346v1.598h0.1214c0.2259-0.5199 0.5796-0.9375 1.0611-1.2528 0.4858-0.3154 1.0973-0.473 1.8345-0.473 0.669 0 1.255 0.1406 1.7578 0.4219 0.5029 0.2769 0.8928 0.6903 1.1698 1.24s0.4154 1.2294 0.4154 2.0391v6.245h-1.9112v-6.0149c0-0.7117-0.1853-1.2678-0.5561-1.6683-0.3707-0.4049-0.88-0.6073-1.5277-0.6073-0.4432 0-0.8373 0.0959-1.1825 0.2877-0.3409 0.1917-0.6115 0.473-0.8118 0.8437-0.196 0.3665-0.294 0.8097-0.294 1.3296zm11.704 6.0468c-0.622 0-1.184-0.115-1.6873-0.3451-0.5028-0.2344-0.9013-0.5732-1.1953-1.0164-0.2898-0.4432-0.4347-0.9865-0.4347-1.6299 0-0.554 0.1066-1.01 0.3196-1.3679 0.2131-0.358 0.5007-0.6414 0.863-0.8502 0.3622-0.2088 0.767-0.3665 1.2147-0.473 0.447-0.1065 0.903-0.1875 1.368-0.2429 0.588-0.0682 1.065-0.1236 1.431-0.1662 0.367-0.0469 0.633-0.1214 0.799-0.2237 0.167-0.1023 0.25-0.2685 0.25-0.4986v-0.0447c0-0.5583-0.158-0.9908-0.473-1.2976-0.311-0.3068-0.776-0.4602-1.394-0.4602-0.643 0-1.15 0.1427-1.521 0.4282-0.367 0.2813-0.62 0.5945-0.761 0.9397l-1.7958-0.4091c0.213-0.5966 0.5241-1.0782 0.9332-1.4446 0.4133-0.3708 0.8886-0.6392 1.4256-0.8054 0.537-0.1705 1.101-0.2557 1.694-0.2557 0.392 0 0.807 0.0469 1.246 0.1406 0.443 0.0895 0.857 0.2557 1.24 0.4986 0.388 0.2429 0.705 0.5902 0.953 1.0419 0.247 0.4474 0.37 1.0291 0.37 1.745v6.5199h-1.866v-1.3423h-0.077c-0.123 0.2471-0.309 0.49-0.556 0.7287-0.247 0.2386-0.565 0.4368-0.952 0.5944-0.388 0.1577-0.853 0.2365-1.394 0.2365zm0.416-1.5341c0.528 0 0.98-0.1044 1.355-0.3132 0.379-0.2088 0.667-0.4815 0.863-0.8182 0.2-0.3409 0.3-0.7052 0.3-1.093v-1.2656c-0.068 0.0682-0.2 0.1321-0.396 0.1917-0.192 0.0554-0.411 0.1044-0.659 0.1471-0.247 0.0383-0.487 0.0745-0.722 0.1086-0.234 0.0299-0.43 0.0554-0.588 0.0767-0.371 0.0469-0.709 0.1257-1.016 0.2365-0.303 0.1108-0.546 0.2706-0.729 0.4794-0.1789 0.2046-0.2684 0.4773-0.2684 0.8182 0 0.473 0.1744 0.831 0.5244 1.0739 0.349 0.2386 0.794 0.3579 1.336 0.3579zm11.091 5.2032c-0.779 0-1.451-0.1023-2.013-0.3069-0.558-0.2045-1.014-0.4751-1.368-0.8117-0.354-0.3367-0.618-0.7053-0.793-1.1059l1.643-0.6775c0.115 0.1875 0.269 0.3856 0.46 0.5944 0.196 0.2131 0.461 0.3942 0.793 0.5434 0.337 0.1491 0.769 0.2237 1.298 0.2237 0.724 0 1.323-0.1769 1.796-0.5306 0.473-0.3494 0.709-0.9076 0.709-1.6747v-1.9304h-0.121c-0.115 0.2088-0.281 0.4411-0.499 0.6968-0.213 0.2556-0.507 0.4772-0.882 0.6647s-0.863 0.2813-1.464 0.2813c-0.775 0-1.474-0.1811-2.096-0.5433-0.618-0.3665-1.108-0.9056-1.47-1.6172-0.358-0.7159-0.537-1.5959-0.537-2.6399 0-1.0441 0.177-1.939 0.53-2.6847 0.358-0.7457 0.848-1.3168 1.47-1.7131 0.623-0.4005 1.328-0.6008 2.116-0.6008 0.61 0 1.102 0.1022 1.477 0.3068 0.375 0.2003 0.667 0.4347 0.875 0.7031 0.214 0.2685 0.378 0.505 0.493 0.7095h0.14v-1.5916h1.873v10.036c0 0.8438-0.196 1.5363-0.588 2.0774-0.392 0.5412-0.922 0.9418-1.592 1.2017-0.664 0.26-1.414 0.39-2.25 0.39zm-0.019-5.6186c0.55 0 1.015-0.1279 1.394-0.3836 0.383-0.2599 0.673-0.6306 0.869-1.1122 0.2-0.4858 0.301-1.0675 0.301-1.745 0-0.6605-0.098-1.2422-0.295-1.745-0.196-0.5029-0.483-0.8949-0.862-1.1762-0.38-0.2855-0.848-0.4282-1.407-0.4282-0.575 0-1.054 0.1491-1.438 0.4474-0.383 0.294-0.673 0.6946-0.869 1.2017-0.192 0.5071-0.288 1.0739-0.288 1.7003 0 0.6435 0.098 1.2081 0.294 1.6939s0.486 0.865 0.869 1.1378c0.388 0.2727 0.866 0.4091 1.432 0.4091zm11.244 1.9304c-0.967 0-1.801-0.2067-2.499-0.6201-0.695-0.4176-1.232-1.0035-1.611-1.7578-0.375-0.7585-0.563-1.647-0.563-2.6655 0-1.0057 0.188-1.892 0.563-2.6591 0.379-0.767 0.907-1.3657 1.585-1.7961 0.682-0.4304 1.479-0.6456 2.391-0.6456 0.554 0 1.091 0.0916 1.61 0.2748 0.52 0.1833 0.987 0.4709 1.4 0.863 0.414 0.392 0.74 0.9012 0.978 1.5277 0.239 0.6221 0.358 1.3785 0.358 2.2691v0.6776h-7.804v-1.4318h5.931c0-0.5029-0.102-0.9482-0.306-1.336-0.205-0.392-0.493-0.701-0.863-0.9268-0.367-0.2259-0.797-0.3388-1.292-0.3388-0.536 0-1.005 0.1321-1.406 0.3963-0.396 0.26-0.703 0.6009-0.92 1.0227-0.213 0.4177-0.32 0.8715-0.32 1.3616v1.1186c0 0.6562 0.115 1.2144 0.345 1.6747 0.235 0.4602 0.561 0.8118 0.978 1.0547 0.418 0.2386 0.906 0.3579 1.464 0.3579 0.362 0 0.693-0.0511 0.991-0.1534 0.298-0.1065 0.556-0.2642 0.773-0.473 0.218-0.2088 0.384-0.4666 0.499-0.7734l1.809 0.326c-0.145 0.5326-0.405 0.9992-0.78 1.3998-0.371 0.3963-0.837 0.7053-1.4 0.9269-0.558 0.2173-1.195 0.326-1.911 0.326zm6.333-0.1982v-9.8182h1.847v1.5597h0.102c0.179-0.5284 0.495-0.9439 0.946-1.2465 0.456-0.3068 0.972-0.4602 1.547-0.4602 0.12 0 0.26 0.0043 0.422 0.0128 0.166 0.0085 0.296 0.0192 0.39 0.0319v1.8282c-0.077-0.0213-0.213-0.0448-0.409-0.0703-0.196-0.0299-0.392-0.0448-0.588-0.0448-0.452 0-0.854 0.0959-1.208 0.2877-0.35 0.1875-0.627 0.4495-0.831 0.7862-0.205 0.3324-0.307 0.7116-0.307 1.1378v5.9957h-1.911z"/>
</svg>
